<?xml version="1.0" encoding="UTF-8" standalone="no"?>
<svg width="200px" height="200px" viewBox="0 0 200 200" version="1.1" xmlns="http://www.w3.org/2000/svg" xmlns:xlink="http://www.w3.org/1999/xlink" xmlns:sketch="http://www.bohemiancoding.com/sketch/ns">
    <!-- Generator: Sketch 3.2.2 (9983) - http://www.bohemiancoding.com/sketch -->
    <title>Artboard 2</title>
    <desc>Created with Sketch.</desc>
    <defs></defs>
    <g id="Page-1" stroke="none" stroke-width="1" fill="none" fill-rule="evenodd" sketch:type="MSPage">
        <g id="Artboard-2" sketch:type="MSArtboardGroup" fill="#4990E2">
            <g id="noun_84577_cc" sketch:type="MSLayerGroup" transform="translate(100.000000, 100.000000) rotate(-270.000000) translate(-100.000000, -100.000000) ">
                <path d="M195.824176,123.669065 C188.131868,149.676259 174.578755,168.705036 153.589744,182.446043 C125.164835,201.043165 121.391941,200.179856 105.787546,171.258993 C96.1538462,153.417266 88.6080586,134.352518 77.1794872,117.553957 C69.7435897,106.654676 92.4542125,78.5251799 113.553114,78.5251799 C122.344322,78.5251799 127.326007,82.0503597 137.362637,88.7410072 C157.142857,101.978417 192.967033,121.366906 195.824176,123.669065 L195.824176,123.669065 Z" id="Shape" sketch:type="MSShapeGroup"></path>
                <path d="M117.362637,72.8057554 C124.102564,60.4316547 128.608059,41.1870504 136.666667,39.6402878 C152.710623,36.5467626 170.732601,43.057554 187.875458,46.0071942 C189.85348,46.3309353 192.380952,49.028777 192.893773,51.0431655 C197.765568,70.7194245 203.223443,96.1151079 197.326007,117.517986 C170.952381,104.028777 142.197802,85.5755396 117.362637,72.8057554 L117.362637,72.8057554 Z" id="Shape" sketch:type="MSShapeGroup"></path>
                <path d="M108.608059,196.258993 C83.1868132,205 54.981685,195 51.3553114,192.014388 C48.974359,190.071942 44.8717949,186.366906 43.2967033,182.697842 C41.5750916,178.669065 41.9413919,173.81295 41.1355311,169.352518 C34.4322344,132.014388 34.3956044,132.014388 71.8315018,117.553957 C84.7252747,141.906475 93.956044,161.582734 110.622711,190.791367 C111.611722,192.446043 110.47619,195.611511 108.608059,196.258993 L108.608059,196.258993 Z" id="Shape" sketch:type="MSShapeGroup"></path>
                <path d="M140.40293,34.5323741 C143.772894,21.618705 140.32967,3.52517986 156.556777,0.35971223 C173.003663,-2.84172662 186.849817,34.5683453 189.59707,42.0863309 C172.564103,35.7194245 157.289377,35.6115108 140.40293,34.5323741 L140.40293,34.5323741 Z" id="Shape" sketch:type="MSShapeGroup"></path>
                <path d="M34.5421245,142.877698 C35.018315,156.47482 37.2527473,168.23741 37.7289377,182.374101 C15.0915751,177.122302 -1.17216117,167.230216 0.476190476,156.043165 C2.08791209,144.892086 11.0622711,141.258993 34.5421245,142.877698 L34.5421245,142.877698 Z" id="Shape" sketch:type="MSShapeGroup"></path>
            </g>
        </g>
    </g>
</svg>